<?xml version="1.0" standalone="no"?>
<!DOCTYPE svg PUBLIC "-//W3C//DTD SVG 20010904//EN"
 "http://www.w3.org/TR/2001/REC-SVG-20010904/DTD/svg10.dtd">
<svg version="1.0" xmlns="http://www.w3.org/2000/svg"
 width="1000.000000pt" height="1000.000000pt" viewBox="0 0 1000.000000 1000.000000"
 preserveAspectRatio="xMidYMid meet">
<metadata>
Created by potrace 1.11, written by Peter Selinger 2001-2013
</metadata>
<g transform="translate(0.000000,1000.000000) scale(0.100000,-0.100000)"
fill="#000000" stroke="none">
<path d="M3256 8869 c-524 -54 -981 -220 -1286 -466 -125 -101 -231 -240 -328
-431 -253 -495 -345 -1148 -246 -1747 56 -337 192 -691 381 -991 208 -331 531
-658 931 -944 50 -36 92 -67 92 -70 0 -3 -354 -230 -787 -505 -432 -275 -791
-507 -796 -516 -14 -23 747 -1219 776 -1219 11 0 72 33 136 74 64 41 123 77
132 81 10 4 106 -48 265 -143 633 -378 920 -546 940 -550 15 -3 27 5 41 25 11
15 262 435 558 933 295 498 542 910 549 916 8 9 56 -2 186 -43 534 -166 1020
-253 1412 -253 l148 0 -46 -62 c-95 -129 -163 -300 -185 -464 -43 -320 96
-783 352 -1174 155 -238 312 -430 351 -430 25 0 62 35 149 138 237 284 423
608 511 890 79 256 89 536 26 740 -11 35 -22 70 -25 78 -4 10 9 9 52 -6 225
-77 516 -68 800 25 129 42 371 157 504 240 170 105 465 337 491 385 5 10 6 28
2 39 -13 37 -244 220 -413 328 -311 200 -617 320 -912 359 -250 32 -502 -25
-701 -160 -38 -25 -70 -46 -71 -46 -1 0 -5 100 -8 223 -7 328 -48 594 -152
987 -130 496 -297 936 -540 1425 -323 652 -680 1165 -1081 1555 -158 153 -258
234 -424 342 -348 228 -733 370 -1160 428 -105 15 -517 21 -624 9z"/>
</g>
</svg>
